<svg width="26" height="26" viewBox="0 0 26 26" fill="none" xmlns="http://www.w3.org/2000/svg">
<circle cx="13" cy="13" r="13" fill="#46009D"/>
<path fill-rule="evenodd" clip-rule="evenodd" d="M18.7363 8.27726C18.9052 8.45463 19 8.69518 19 8.94599C19 9.19681 18.9052 9.43735 18.7363 9.61473L11.9869 16.7044C11.8977 16.7981 11.7918 16.8725 11.6752 16.9232C11.5587 16.9739 11.4338 17 11.3076 17C11.1814 17 11.0565 16.9739 10.94 16.9232C10.8234 16.8725 10.7175 16.7981 10.6283 16.7044L7.27491 13.1826C7.1889 13.0953 7.1203 12.991 7.07311 12.8756C7.02591 12.7602 7.00107 12.636 7.00003 12.5104C6.99899 12.3849 7.02178 12.2603 7.06706 12.1441C7.11233 12.0278 7.1792 11.9222 7.26375 11.8334C7.3483 11.7446 7.44884 11.6743 7.55951 11.6268C7.67017 11.5792 7.78875 11.5553 7.90831 11.5564C8.02788 11.5575 8.14604 11.5836 8.25591 11.6331C8.36577 11.6827 8.46513 11.7548 8.5482 11.8451L11.3073 14.7433L17.4625 8.27726C17.5461 8.18936 17.6454 8.11963 17.7547 8.07206C17.864 8.02449 17.9811 8 18.0994 8C18.2177 8 18.3348 8.02449 18.4441 8.07206C18.5534 8.11963 18.6527 8.18936 18.7363 8.27726Z" fill="white"/>
</svg>
